<svg xmlns="http://www.w3.org/2000/svg" viewBox="0 0 24 30" x="0px" y="0px"><title>_</title><path d="M10,12V11h4v1h7V8a1,1,0,0,0-1-1H15V5a1,1,0,0,0-1-1H10A1,1,0,0,0,9,5V7H4A1,1,0,0,0,3,8v4Zm0-7h4V7H10Zm11,8.5V19a1,1,0,0,1-1,1H4a1,1,0,0,1-1-1V13.5h7v1h4v-1Z"/><text x="0" y="39" fill="#000000" font-size="5px" font-weight="bold" font-family="'Helvetica Neue', Helvetica, Arial-Unicode, Arial, Sans-serif">Created by Sophia Bai</text><text x="0" y="44" fill="#000000" font-size="5px" font-weight="bold" font-family="'Helvetica Neue', Helvetica, Arial-Unicode, Arial, Sans-serif">from the Noun Project</text></svg>