<svg xmlns="http://www.w3.org/2000/svg" xmlns:xlink="http://www.w3.org/1999/xlink" version="1.1" x="0px" y="0px" viewBox="0 0 100 125" enable-background="new 0 0 100 100" xml:space="preserve"><g><path d="M5.316,94.538l3.806-25.693C1.46,52.219,4.479,31.881,18.18,18.18c17.574-17.574,46.066-17.574,63.64,0   s17.574,46.066,0,63.64c-13.884,13.884-34.583,16.799-51.328,8.745L5.316,94.538z M23.799,49.684c0,3.189,2.585,5.774,5.774,5.774   s5.774-2.585,5.774-5.774c0-3.189-2.585-5.774-5.774-5.774S23.799,46.495,23.799,49.684z M44.361,49.684   c0,3.189,2.585,5.774,5.774,5.774c3.189,0,5.774-2.585,5.774-5.774c0-3.189-2.585-5.774-5.774-5.774   C46.946,43.91,44.361,46.495,44.361,49.684z M64.923,49.684c0,3.189,2.585,5.774,5.774,5.774s5.774-2.585,5.774-5.774   c0-3.189-2.585-5.774-5.774-5.774S64.923,46.495,64.923,49.684z"/></g><text x="0" y="115" fill="#000000" font-size="5px" font-weight="bold" font-family="'Helvetica Neue', Helvetica, Arial-Unicode, Arial, Sans-serif">Created by Alex Kwa</text><text x="0" y="120" fill="#000000" font-size="5px" font-weight="bold" font-family="'Helvetica Neue', Helvetica, Arial-Unicode, Arial, Sans-serif">from the Noun Project</text></svg>