<svg xmlns="http://www.w3.org/2000/svg" data-name="Layer 1" viewBox="0 0 100 125" x="0px" y="0px"><title>Artboard 8</title><path d="M81.57,39.47,82.48,43,79,43.92,78,40.38Zm18,1.47A19.29,19.29,0,0,1,80.26,61H63.37A2.39,2.39,0,0,1,61,58.58V41.69a19.29,19.29,0,0,1,38.56-.75ZM90.61,43a2.09,2.09,0,0,0-2.54-1.49l-1.55.4-.92-3.53,1.55-.4a2.08,2.08,0,0,0-1-4l-1.55.4-.4-1.55a2.08,2.08,0,0,0-4,1l.4,1.55L77,36.35l-.4-1.55a2.08,2.08,0,1,0-4,1l.4,1.55-1.55.4a2.08,2.08,0,1,0,1,4l1.55-.4L74.91,45l-1.55.4a2.08,2.08,0,1,0,1,4L76,49l.4,1.55a2.08,2.08,0,1,0,4-1L80,48,83.53,47l.4,1.55a2.08,2.08,0,1,0,4-1L87.56,46l1.55-.4A2.08,2.08,0,0,0,90.61,43ZM1.27,76.37a2.57,2.57,0,0,1,.49-4.1,54.41,54.41,0,0,1,14.58-5.52.21.21,0,0,0,.16-.21v-3a23.32,23.32,0,0,1-3.89-7.75c-2-2-2.88-5.1-3.36-6.79-.78-2.74-1.56-6.71.58-9.55l.1-.12c-.14-.84-.24-1.65-.31-2.48-1-6.43-.22-11.22,2.22-14.23a8.11,8.11,0,0,1,5.3-3c1.25-4.3,7.33-8.5,12.85-7.35s16.57-.15,16.68-.16a.56.56,0,0,1,.4.12.53.53,0,0,1,.19.37,5.51,5.51,0,0,1-1.58,4c8.94,6,7.65,17.73,6.62,22.71l.09.12c2.14,2.84,1.36,6.81.59,9.55-.48,1.69-1.36,4.82-3.36,6.8a23.22,23.22,0,0,1-3.88,7.69v3a.21.21,0,0,0,.16.21,54.41,54.41,0,0,1,14.58,5.52,2.57,2.57,0,0,1,.49,4.1,44.37,44.37,0,0,1-59.7,0Zm41.88-4.81a5.71,5.71,0,0,1-2.63-3.15,19,19,0,0,1-4,2,16.18,16.18,0,0,1-10.79,0,18.62,18.62,0,0,1-4-2,5.73,5.73,0,0,1-2.62,3.11,14.67,14.67,0,0,0,12,6A14.67,14.67,0,0,0,43.15,71.56Zm-26.52-19a.53.53,0,0,1,.48.45c.72,4.65,4.24,10.63,10.28,12.76a11.11,11.11,0,0,0,7.44,0c5.8-2.09,9.58-8,10.31-12.74a.52.52,0,0,1,.48-.45c.28,0,1.31-.44,2.57-4.9,1-3.48.57-4.74.23-5.18a1.27,1.27,0,0,0-1.19-.41.53.53,0,0,1-.55-.7l0-.1c.25-.83,1.28-5.07-2.32-7.72-3.15.7-8.33.89-15.29-2.08-3.4-1.45-6.25-1.5-8.47-.15C16.2,34,15.59,41.49,15.59,41.57a.53.53,0,0,1-.56.49H14.8a1.14,1.14,0,0,0-1,.42c-.33.44-.75,1.7.23,5.18C15.31,52.1,16.34,52.53,16.62,52.55Z"/><text x="0" y="115" fill="#000000" font-size="5px" font-weight="bold" font-family="'Helvetica Neue', Helvetica, Arial-Unicode, Arial, Sans-serif">Created by Gregor Cresnar</text><text x="0" y="120" fill="#000000" font-size="5px" font-weight="bold" font-family="'Helvetica Neue', Helvetica, Arial-Unicode, Arial, Sans-serif">from the Noun Project</text></svg>